<?xml version="1.0" standalone="no"?>
<!DOCTYPE svg PUBLIC "-//W3C//DTD SVG 20010904//EN"
 "http://www.w3.org/TR/2001/REC-SVG-20010904/DTD/svg10.dtd">
<svg version="1.0" xmlns="http://www.w3.org/2000/svg"
 width="261.000000pt" height="261.000000pt" viewBox="0 0 261.000000 261.000000"
 preserveAspectRatio="xMidYMid meet">
<metadata>
Created by potrace 1.14, written by Peter Selinger 2001-2017
</metadata>
<g transform="translate(0.000000,261.000000) scale(0.100000,-0.100000)"
fill="#000000" stroke="none">
<path d="M1218 2605 c-1 -2 -34 -6 -73 -10 -38 -3 -72 -8 -76 -11 -4 -2 -24
-6 -45 -10 -20 -3 -48 -10 -61 -15 -13 -5 -23 -6 -23 -3 0 4 -7 1 -15 -6 -8
-7 -15 -9 -15 -4 0 4 -5 3 -12 -4 -7 -7 -18 -12 -26 -12 -12 0 -33 -9 -142
-58 -136 -62 -314 -203 -427 -339 -229 -276 -339 -660 -287 -1000 20 -126 40
-202 80 -304 134 -340 401 -604 746 -740 60 -23 221 -64 293 -75 74 -10 250
-12 298 -4 23 4 65 11 94 14 28 3 63 10 77 16 14 5 26 7 26 5 0 -8 175 57 245
92 129 64 244 144 334 234 86 87 191 217 191 238 0 5 4 11 9 13 15 5 98 178
126 263 28 83 59 228 66 305 8 100 -1 311 -16 352 -2 7 -7 25 -10 41 -12 65
-17 82 -47 165 -17 48 -37 94 -44 102 -7 8 -12 17 -12 20 2 10 -46 97 -85 155
-84 125 -183 230 -302 319 -66 49 -170 116 -180 116 -3 0 -32 13 -65 29 -96
47 -210 81 -337 101 -66 11 -277 22 -285 15z"/>
</g>
</svg>
